<svg xmlns="http://www.w3.org/2000/svg" width="30.511" height="21.453" viewBox="0 0 30.511 21.453">
  <path id="Icon_awesome-youtube" data-name="Icon awesome-youtube" d="M30.923,7.857a3.834,3.834,0,0,0-2.7-2.715C25.846,4.5,16.305,4.5,16.305,4.5s-9.541,0-11.92.642a3.834,3.834,0,0,0-2.7,2.715,40.217,40.217,0,0,0-.638,7.391,40.217,40.217,0,0,0,.638,7.391,3.777,3.777,0,0,0,2.7,2.672c2.379.642,11.92.642,11.92.642s9.541,0,11.92-.642a3.777,3.777,0,0,0,2.7-2.672,40.217,40.217,0,0,0,.638-7.391,40.217,40.217,0,0,0-.638-7.391ZM13.185,19.785V10.712l7.974,4.537-7.974,4.536Z" transform="translate(-1.05 -4.5)" fill="#fff"/>
</svg>
