<svg xmlns="http://www.w3.org/2000/svg" width="25.042" height="25.037" viewBox="0 0 25.042 25.037">
  <path id="Icon_awesome-instagram" data-name="Icon awesome-instagram" d="M12.519,8.337a6.419,6.419,0,1,0,6.419,6.419A6.409,6.409,0,0,0,12.519,8.337Zm0,10.592a4.173,4.173,0,1,1,4.173-4.173,4.181,4.181,0,0,1-4.173,4.173ZM20.7,8.074a1.5,1.5,0,1,1-1.5-1.5A1.494,1.494,0,0,1,20.7,8.074Zm4.251,1.52a7.409,7.409,0,0,0-2.022-5.246,7.458,7.458,0,0,0-5.246-2.022c-2.067-.117-8.263-.117-10.33,0A7.447,7.447,0,0,0,2.105,4.342,7.434,7.434,0,0,0,.083,9.588c-.117,2.067-.117,8.263,0,10.33a7.409,7.409,0,0,0,2.022,5.246,7.468,7.468,0,0,0,5.246,2.022c2.067.117,8.263.117,10.33,0a7.409,7.409,0,0,0,5.246-2.022,7.458,7.458,0,0,0,2.022-5.246c.117-2.067.117-8.257,0-10.324Zm-2.67,12.542a4.225,4.225,0,0,1-2.38,2.38c-1.648.654-5.559.5-7.38.5s-5.738.145-7.38-.5a4.225,4.225,0,0,1-2.38-2.38c-.654-1.648-.5-5.559-.5-7.38s-.145-5.738.5-7.38A4.225,4.225,0,0,1,5.139,5c1.648-.654,5.559-.5,7.38-.5s5.738-.145,7.38.5a4.225,4.225,0,0,1,2.38,2.38c.654,1.648.5,5.559.5,7.38S22.932,20.494,22.279,22.136Z" transform="translate(0.005 -2.238)" fill="#fff"/>
</svg>
