<svg xmlns="http://www.w3.org/2000/svg" width="226.914" height="248.417" viewBox="0 0 226.914 248.417">
  <g id="Group_5" data-name="Group 5" transform="matrix(0.891, 0.454, -0.454, 0.891, 189.429, -694.184)">
    <g id="Ellipse_5" data-name="Ellipse 5" transform="translate(224 686)" fill="#fff" stroke="#4d5bbe" stroke-width="1">
      <ellipse cx="29" cy="29.5" rx="29" ry="29.5" stroke="none"/>
      <ellipse cx="29" cy="29.5" rx="28.5" ry="29" fill="none"/>
    </g>
    <g id="Ellipse_6" data-name="Ellipse 6" transform="translate(299 675)" fill="#fff" stroke="#4d5bbe" stroke-width="1">
      <ellipse cx="43.5" cy="46.5" rx="43.5" ry="46.5" stroke="none"/>
      <ellipse cx="43.5" cy="46.5" rx="43" ry="46" fill="none"/>
    </g>
    <g id="Ellipse_7" data-name="Ellipse 7" transform="translate(253 747)" fill="#fff" stroke="#4d5bbe" stroke-width="1">
      <ellipse cx="24.5" cy="21" rx="24.5" ry="21" stroke="none"/>
      <ellipse cx="24.5" cy="21" rx="24" ry="20.5" fill="none"/>
    </g>
    <g id="Ellipse_8" data-name="Ellipse 8" transform="translate(273 640)" fill="#fff" stroke="#4d5bbe" stroke-width="1">
      <circle cx="23" cy="23" r="23" stroke="none"/>
      <circle cx="23" cy="23" r="22.5" fill="none"/>
    </g>
    <g id="Ellipse_9" data-name="Ellipse 9" transform="translate(325 773)" fill="#fff" stroke="#4d5bbe" stroke-width="1">
      <ellipse cx="42.5" cy="38" rx="42.5" ry="38" stroke="none"/>
      <ellipse cx="42.5" cy="38" rx="42" ry="37.5" fill="none"/>
    </g>
    <g id="Ellipse_10" data-name="Ellipse 10" transform="translate(194 747)" fill="#fff" stroke="#4d5bbe" stroke-width="1">
      <ellipse cx="26.5" cy="25.5" rx="26.5" ry="25.5" stroke="none"/>
      <ellipse cx="26.5" cy="25.5" rx="26" ry="25" fill="none"/>
    </g>
    <g id="Ellipse_11" data-name="Ellipse 11" transform="translate(273 789)" fill="#fff" stroke="#4d5bbe" stroke-width="1">
      <ellipse cx="23" cy="24" rx="23" ry="24" stroke="none"/>
      <ellipse cx="23" cy="24" rx="22.5" ry="23.5" fill="none"/>
    </g>
  </g>
</svg>
