<svg xmlns="http://www.w3.org/2000/svg" width="174" height="168" viewBox="0 0 174 168">
  <g id="Group_145" data-name="Group 145" transform="translate(-194 -640)">
    <g id="Ellipse_5" data-name="Ellipse 5" transform="translate(219 677)" fill="#fff" stroke="#4d5bbe" stroke-width="1">
      <ellipse cx="23" cy="24" rx="23" ry="24" stroke="none"/>
      <ellipse cx="23" cy="24" rx="22.5" ry="23.5" fill="none"/>
    </g>
    <g id="Ellipse_6" data-name="Ellipse 6" transform="translate(279 668)" fill="#fff" stroke="#4d5bbe" stroke-width="1">
      <ellipse cx="35" cy="37.5" rx="35" ry="37.5" stroke="none"/>
      <ellipse cx="35" cy="37.5" rx="34.5" ry="37" fill="none"/>
    </g>
    <g id="Ellipse_7" data-name="Ellipse 7" transform="translate(242 726)" fill="#fff" stroke="#4d5bbe" stroke-width="1">
      <ellipse cx="19.5" cy="17" rx="19.5" ry="17" stroke="none"/>
      <ellipse cx="19.5" cy="17" rx="19" ry="16.5" fill="none"/>
    </g>
    <g id="Ellipse_8" data-name="Ellipse 8" transform="translate(258 640)" fill="#fff" stroke="#4d5bbe" stroke-width="1">
      <circle cx="18.5" cy="18.5" r="18.5" stroke="none"/>
      <circle cx="18.5" cy="18.5" r="18" fill="none"/>
    </g>
    <g id="Ellipse_9" data-name="Ellipse 9" transform="translate(300 747)" fill="#fff" stroke="#4d5bbe" stroke-width="1">
      <ellipse cx="34" cy="30.5" rx="34" ry="30.5" stroke="none"/>
      <ellipse cx="34" cy="30.5" rx="33.5" ry="30" fill="none"/>
    </g>
    <g id="Ellipse_10" data-name="Ellipse 10" transform="translate(194 726)" fill="#fff" stroke="#4d5bbe" stroke-width="1">
      <ellipse cx="21.5" cy="21" rx="21.5" ry="21" stroke="none"/>
      <ellipse cx="21.5" cy="21" rx="21" ry="20.5" fill="none"/>
    </g>
    <g id="Ellipse_11" data-name="Ellipse 11" transform="translate(258 760)" fill="#fff" stroke="#4d5bbe" stroke-width="1">
      <ellipse cx="18.5" cy="19.5" rx="18.5" ry="19.5" stroke="none"/>
      <ellipse cx="18.5" cy="19.5" rx="18" ry="19" fill="none"/>
    </g>
  </g>
</svg>
