<svg xmlns="http://www.w3.org/2000/svg" width="142" height="137" viewBox="0 0 142 137">
  <g id="Group_5" data-name="Group 5" transform="translate(-194 -640)">
    <g id="Ellipse_5" data-name="Ellipse 5" transform="translate(214 670)" fill="#fff" stroke="#4d5bbe" stroke-width="1">
      <ellipse cx="19" cy="19.5" rx="19" ry="19.5" stroke="none"/>
      <ellipse cx="19" cy="19.5" rx="18.5" ry="19" fill="none"/>
    </g>
    <g id="Ellipse_6" data-name="Ellipse 6" transform="translate(263 663)" fill="#fff" stroke="#4d5bbe" stroke-width="1">
      <ellipse cx="28.5" cy="30.5" rx="28.5" ry="30.5" stroke="none"/>
      <ellipse cx="28.5" cy="30.5" rx="28" ry="30" fill="none"/>
    </g>
    <g id="Ellipse_7" data-name="Ellipse 7" transform="translate(233 710)" fill="#fff" stroke="#4d5bbe" stroke-width="1">
      <ellipse cx="16" cy="14" rx="16" ry="14" stroke="none"/>
      <ellipse cx="16" cy="14" rx="15.5" ry="13.5" fill="none"/>
    </g>
    <g id="Ellipse_8" data-name="Ellipse 8" transform="translate(246 640)" fill="#fff" stroke="#4d5bbe" stroke-width="1">
      <circle cx="15" cy="15" r="15" stroke="none"/>
      <circle cx="15" cy="15" r="14.5" fill="none"/>
    </g>
    <g id="Ellipse_9" data-name="Ellipse 9" transform="translate(280 727)" fill="#fff" stroke="#4d5bbe" stroke-width="1">
      <ellipse cx="28" cy="25" rx="28" ry="25" stroke="none"/>
      <ellipse cx="28" cy="25" rx="27.5" ry="24.5" fill="none"/>
    </g>
    <g id="Ellipse_10" data-name="Ellipse 10" transform="translate(194 710)" fill="#fff" stroke="#4d5bbe" stroke-width="1">
      <ellipse cx="17.5" cy="17" rx="17.5" ry="17" stroke="none"/>
      <ellipse cx="17.5" cy="17" rx="17" ry="16.5" fill="none"/>
    </g>
    <g id="Ellipse_11" data-name="Ellipse 11" transform="translate(246 738)" fill="#fff" stroke="#4d5bbe" stroke-width="1">
      <ellipse cx="15" cy="15.5" rx="15" ry="15.5" stroke="none"/>
      <ellipse cx="15" cy="15.5" rx="14.5" ry="15" fill="none"/>
    </g>
  </g>
</svg>
