<svg xmlns="http://www.w3.org/2000/svg" width="199.877" height="213.549" viewBox="0 0 199.877 213.549">
  <g id="email" transform="translate(0)">
    <path id="Polygon_1" data-name="Polygon 1" d="M99.938,0l99.938,107.149H0Z" transform="translate(0)" fill="#1d84c7"/>
    <path id="Path_311" data-name="Path 311" d="M99.938,0l99.938,107.149H0Z" transform="translate(199.877 213.549) rotate(180)" fill="#1d84c7"/>
    <g id="Icon_feather-mail" data-name="Icon feather-mail" transform="translate(70.858 82.81)">
      <path id="Path_312" data-name="Path 312" d="M8.728,6H54.553a5.881,5.881,0,0,1,5.728,5.991V47.938a5.881,5.881,0,0,1-5.728,5.991H8.728A5.881,5.881,0,0,1,3,47.938V11.991A5.881,5.881,0,0,1,8.728,6Z" transform="translate(-3 -6)" fill="none" stroke="#fff" stroke-linecap="round" stroke-linejoin="round" stroke-width="5"/>
      <path id="Path_313" data-name="Path 313" d="M60.281,9,31.64,29.969,3,9" transform="translate(-3 -3.009)" fill="none" stroke="#fff" stroke-linecap="round" stroke-linejoin="round" stroke-width="5"/>
    </g>
  </g>
</svg>
