<svg xmlns="http://www.w3.org/2000/svg" width="23.376" height="20.122" viewBox="0 0 23.376 20.122">
  <path id="Icon_awesome-arrow-right" data-name="Icon awesome-arrow-right" d="M9.939,4,11.1,2.972a1.366,1.366,0,0,1,1.769,0l10.142,8.953a1.013,1.013,0,0,1,0,1.562L12.866,22.445a1.366,1.366,0,0,1-1.769,0L9.939,21.422a1.019,1.019,0,0,1,.021-1.58l6.287-5.29H1.252A1.183,1.183,0,0,1,0,13.446V11.971a1.183,1.183,0,0,1,1.252-1.106H16.246L9.96,5.576A1.013,1.013,0,0,1,9.939,4Z" transform="translate(0 -2.647)" fill="#08549b"/>
</svg>
