<svg xmlns="http://www.w3.org/2000/svg" width="88" height="88" viewBox="0 0 88 88">
  <path id="Icon_metro-earth" data-name="Icon metro-earth" d="M46.571,1.928a44,44,0,1,0,44,44,44,44,0,0,0-44-44Zm0,82.5A38.371,38.371,0,0,1,31.34,81.3l20.036-22.54a2.75,2.75,0,0,0,.695-1.827v-8.25a2.75,2.75,0,0,0-2.75-2.75c-9.71,0-19.955-10.094-20.056-10.194a2.749,2.749,0,0,0-1.944-.806h-11a2.75,2.75,0,0,0-2.75,2.75v16.5a2.75,2.75,0,0,0,1.52,2.46l9.48,4.74V77.524a38.523,38.523,0,0,1-12.793-48.1H21.821a2.75,2.75,0,0,0,1.945-.805l11-11a2.75,2.75,0,0,0,.805-1.945V9.025a38.608,38.608,0,0,1,27.868,2.287c-.356.3-.7.616-1.035.948A16.5,16.5,0,0,0,74.059,40.43q.408,0,.818-.02c1.187,4.452,3.33,16.041-.722,32a2.742,2.742,0,0,0-.072.449A38.38,38.38,0,0,1,46.571,84.428Z" transform="translate(-2.571 -1.928)" fill="#08549b"/>
</svg>
