<svg xmlns="http://www.w3.org/2000/svg" width="28.604" height="23.231" viewBox="0 0 28.604 23.231">
  <path id="Icon_awesome-twitter" data-name="Icon awesome-twitter" d="M25.664,9.17c.018.254.018.508.018.762,0,7.75-5.9,16.679-16.679,16.679a16.566,16.566,0,0,1-9-2.632,12.127,12.127,0,0,0,1.416.073,11.74,11.74,0,0,0,7.278-2.5,5.873,5.873,0,0,1-5.481-4.066,7.393,7.393,0,0,0,1.107.091,6.2,6.2,0,0,0,1.543-.2,5.863,5.863,0,0,1-4.7-5.753v-.073a5.9,5.9,0,0,0,2.65.744A5.871,5.871,0,0,1,2,4.452a16.663,16.663,0,0,0,12.088,6.135,6.618,6.618,0,0,1-.145-1.343A5.868,5.868,0,0,1,24.084,5.232a11.542,11.542,0,0,0,3.721-1.416,5.846,5.846,0,0,1-2.577,3.231A11.752,11.752,0,0,0,28.6,6.14a12.6,12.6,0,0,1-2.94,3.031Z" transform="translate(0 -3.381)" fill="#fff"/>
</svg>
