<svg id="phone" xmlns="http://www.w3.org/2000/svg" width="199.877" height="213.549" viewBox="0 0 199.877 213.549">
  <path id="Polygon_1" data-name="Polygon 1" d="M99.938,0l99.938,107.149H0Z" transform="translate(0)" fill="#1d84c7"/>
  <path id="Path_311" data-name="Path 311" d="M99.938,0l99.938,107.149H0Z" transform="translate(199.877 213.549) rotate(180)" fill="#1d84c7"/>
  <path id="Icon_awesome-phone-alt" data-name="Icon awesome-phone-alt" d="M37.624,47.863l-8.472-6.35c-.743-.554-1.607-.182-2.118.913l-3.752,8.017C17.394,45.588,12.655,37.3,9.879,27l4.584-6.562a4.869,4.869,0,0,0,.522-3.7L11.354,1.919C11,.512,10.13-.26,9.274.08L1.407,3.255C.583,3.588,0,4.871,0,6.35,0,40.283,15.726,67.734,35.1,67.734c.846,0,1.58-1.02,1.77-2.461l1.815-13.758a4.164,4.164,0,0,0-1.06-3.651Z" transform="translate(77.444 74.907)" fill="#fff"/>
</svg>
